<svg xmlns="http://www.w3.org/2000/svg" viewBox="0 0 270 63.9"><title>logo-cd-white</title><path d="M88.51,51.47a8.56,8.56,0,1,1,0-5.1H86.24a6.39,6.39,0,0,0-10.4-2.16A6.63,6.63,0,0,0,74,48.87a6.26,6.26,0,0,0,6.35,6.43,6.08,6.08,0,0,0,5.84-3.83Z" style="fill:#fff"/><path d="M90.61,40.8h2.1v2.63a5.46,5.46,0,0,1,5.15-3.08v2.18h-.21c-3.11,0-4.85,1.95-4.85,5.6v8.78H90.61Z" style="fill:#fff"/><path d="M99.36,49.49a6.14,6.14,0,0,0,6.29,6,6,6,0,0,0,5.54-3.33h2.31a8.37,8.37,0,0,1-7.85,5.24,8.32,8.32,0,0,1-8.51-8.48,8.47,8.47,0,1,1,16.9.6Zm12.49-1.76a6.28,6.28,0,0,0-12.46,0Z" style="fill:#fff"/><path d="M132.6,56.92h-2.22V53.6a7.15,7.15,0,0,1-6.59,3.77,8.2,8.2,0,0,1-8.36-8.5,8.22,8.22,0,0,1,8.36-8.51,7.08,7.08,0,0,1,6.59,3.83V40.8h2.22Zm-15-8a6.29,6.29,0,0,0,6.47,6.41,6,6,0,0,0,5.81-3.92,6.21,6.21,0,0,0,.54-2.54,5.8,5.8,0,0,0-.51-2.58,6.22,6.22,0,0,0-5.9-3.86,6.32,6.32,0,0,0-6.41,6.47Z" style="fill:#fff"/><path d="M137.42,42.57h-3.17V40.8h3.17V34.75h2.19V40.8h3.54v1.76h-3.54V56.92h-2.19Z" style="fill:#fff"/><path d="M144.81,40.8H147V56.92h-2.22Z" style="fill:#fff"/><path d="M149.95,40.8H152c0,.9,0,1.79,0,2.87.93-2.1,3.12-3.38,6-3.32,5,.05,6.77,3.47,6.77,7.4v9.16h-2.19V48.2c0-3.48-1.56-5.84-5.18-5.78-3.33,0-5.25,2-5.25,5.39v9.11h-2.21Z" style="fill:#fff"/><path d="M184,55.06a8.26,8.26,0,0,1-2.4,6.35,9,9,0,0,1-6.11,2.49,8.15,8.15,0,0,1-8-5.21h2.54A6.41,6.41,0,0,0,175.54,62a6.24,6.24,0,0,0,6.23-6.41V53.5a7,7,0,0,1-6.5,3.86,8.23,8.23,0,0,1-8.42-8.48,8.25,8.25,0,0,1,8.42-8.53,7.14,7.14,0,0,1,6.53,3.77V40.8H184Zm-14.92-6.19a6.26,6.26,0,0,0,6.47,6.43,6.18,6.18,0,0,0,4.53-1.86,6.77,6.77,0,0,0,1.79-4.56,7,7,0,0,0-1.47-4.22,5.93,5.93,0,0,0-4.91-2.24,6.27,6.27,0,0,0-6.41,6.41Z" style="fill:#fff"/><path d="M206.39,56.92h-2.13V53.6a7.11,7.11,0,0,1-6.65,3.77,8.2,8.2,0,0,1-8.32-8.53,8.17,8.17,0,0,1,8.29-8.48,7.1,7.1,0,0,1,6.6,3.72V34.75h2.21Zm-14.91-8.05a6.28,6.28,0,0,0,6.47,6.43,6.4,6.4,0,0,0,4.59-1.89,6.32,6.32,0,0,0,1.79-4.64,6.18,6.18,0,0,0-1.86-4.52,6.46,6.46,0,0,0-11,4.59Z" style="fill:#26aae1"/><path d="M209.71,34.75h2.21v3.08h-2.21Zm0,6.05h2.21V56.92h-2.21Z" style="fill:#26aae1"/><path d="M231.71,55.06a8.23,8.23,0,0,1-2.4,6.35,9,9,0,0,1-6.11,2.49,8.16,8.16,0,0,1-8-5.21h2.55a6.28,6.28,0,0,0,1.91,2.13A6.42,6.42,0,0,0,223.27,62a6.25,6.25,0,0,0,6.23-6.41V53.5a7,7,0,0,1-6.5,3.86,8.23,8.23,0,0,1-8.42-8.48A8.24,8.24,0,0,1,223,40.36a7.14,7.14,0,0,1,6.53,3.77V40.8h2.19Zm-14.92-6.19a6.26,6.26,0,0,0,6.47,6.43,6.18,6.18,0,0,0,4.52-1.86,6.74,6.74,0,0,0,1.8-4.56,7,7,0,0,0-1.47-4.22,5.93,5.93,0,0,0-4.91-2.24,6.27,6.27,0,0,0-6.41,6.41Z" style="fill:#26aae1"/><path d="M234.71,34.75h2.22v3.08h-2.22Zm0,6.05h2.22V56.92h-2.22Z" style="fill:#26aae1"/><path d="M242.41,42.57h-3.18V40.8h3.18V34.75h2.19V40.8h3.54v1.76H244.6V56.92h-2.19Z" style="fill:#26aae1"/><path d="M265,56.92h-2.22V53.6a7.14,7.14,0,0,1-6.59,3.77,8.2,8.2,0,0,1-8.36-8.5,8.23,8.23,0,0,1,8.36-8.51,7.08,7.08,0,0,1,6.59,3.83V40.8H265Zm-15-8a6.29,6.29,0,0,0,6.47,6.41,6,6,0,0,0,5.81-3.92,6.23,6.23,0,0,0,.54-2.54,5.81,5.81,0,0,0-.51-2.58,6.22,6.22,0,0,0-5.9-3.86A6.32,6.32,0,0,0,250,48.87Z" style="fill:#26aae1"/><path d="M267.78,34.75H270V56.92h-2.22Z" style="fill:#26aae1"/><rect x="144.81" y="34.75" width="2.22" height="3.08" style="fill:#fff"/><path d="M32,0A29.75,29.75,0,0,1,43.88,2.42,32.06,32.06,0,0,1,53.76,9a31.73,31.73,0,0,1,6.79,9.88,29.86,29.86,0,0,1,2.54,12.29H52.42a22.3,22.3,0,0,0-1.54-8.29,21.71,21.71,0,0,0-4.25-6.79,20.08,20.08,0,0,0-6.46-4.63A19.48,19.48,0,0,0,32,9.75a20.16,20.16,0,0,0-8.21,1.71A22,22,0,0,0,12.37,22.88a20.77,20.77,0,0,0,0,16.51A21.72,21.72,0,0,0,17,46.14a22.56,22.56,0,0,0,6.79,4.58A20.13,20.13,0,0,0,32,52.42v9.75a32.25,32.25,0,0,1-22.54-9,31.36,31.36,0,0,1-6.92-9.87A29.33,29.33,0,0,1,0,31.17,29.79,29.79,0,0,1,2.54,18.88,30.73,30.73,0,0,1,9.46,9,33.06,33.06,0,0,1,19.63,2.42,31.79,31.79,0,0,1,32,0Z" style="fill:#26aae1"/><path d="M48.94,34.68a13.86,13.86,0,0,1,5.22.92,15.82,15.82,0,0,1,4.22,2.52V34.68h4.72V48.84a14,14,0,0,1-4.32,9.42,14.4,14.4,0,0,1-4.43,2.86,14.11,14.11,0,0,1-5.41,1,13.1,13.1,0,0,1-5.21-1.06,14.29,14.29,0,0,1-4.37-2.91,13.77,13.77,0,0,1-3-4.35,13.14,13.14,0,0,1-1.11-5.39A13.3,13.3,0,0,1,36.34,43a13.72,13.72,0,0,1,3-4.37,14.4,14.4,0,0,1,4.37-2.91A13.11,13.11,0,0,1,48.94,34.68Zm9.43,12.84a9.61,9.61,0,0,0-.95-3.31,9.36,9.36,0,0,0-4.9-4.58A9.38,9.38,0,0,0,48.94,39a8.56,8.56,0,0,0-3.58.75,8.94,8.94,0,0,0-2.86,2,9.55,9.55,0,0,0-1.88,3,9.85,9.85,0,0,0-.68,3.66,9.66,9.66,0,0,0,2.56,6.63,8.77,8.77,0,0,0,2.86,2,8.52,8.52,0,0,0,3.58.75,9.05,9.05,0,0,0,3.66-.75,9.94,9.94,0,0,0,3-2,9.53,9.53,0,0,0,2-2.89,8.11,8.11,0,0,0,.75-3.4Z" style="fill:#26aae1"/></svg>